<?xml version="1.0" encoding="utf-8" ?>
<svg baseProfile="full" height="130" version="1.1" width="440" xmlns="http://www.w3.org/2000/svg" xmlns:ev="http://www.w3.org/2001/xml-events" xmlns:xlink="http://www.w3.org/1999/xlink">
  <defs>
    <style type="text/css">
<![CDATA[rect        { stroke-width: 1; stroke-opacity: 0; }
      rect.background   { fill: rgb(255,255,255); }
      rect.box          { fill: rgb(240,240,240); stroke: rgb(192,192,192); }
      line       { stroke: rgb(64,64,64); stroke-width: 1; }
      line.min5  { stroke: rgb(150,150,150); stroke-width: 1; }
      line.min60 { stroke: rgb(150,150,150); stroke-width: 2; }
      line.min01 { stroke: rgb(224,224,224); stroke-width: 1; }

      rect.queue        { fill: rgb(148,111,97); fill-opacity: 0.3; }

      rect.aborted      { fill: rgb(190,200,183); fill-opacity: 0.7; }
      rect.success      { fill: rgb(170,255,170); fill-opacity: 0.7; }
      rect.failure      { fill: rgb(255,170,170); fill-opacity: 0.7; }
      rect.unstable     { fill: rgb(255,204,170); fill-opacity: 0.7; }
      rect.other        { fill: rgb(204,204,204); fill-opacity: 0.7; }
      rect.in_progress  { fill: rgb(135,205,222); fill-opacity: 0.7; }

      rect.type         { fill: rgb(50,50,50); fill-opacity: 0.9; }
      rect.type_scm     { fill: rgb(255,208,147); fill-opacity: 0.9; }
      rect.type_docker  { fill: rgb(147,214,255); fill-opacity: 0.9; }
      rect.type_build   { fill: rgb(255,147,180); fill-opacity: 0.9; }
      rect.type_test    { fill: rgb(167,147,255); fill-opacity: 0.9; }
      rect.type_archive { fill: rgb(147,255,221); fill-opacity: 0.9; }
      rect.type_sca     { fill: rgb(147,201,181); fill-opacity: 0.9; }

      text       { font-family: Verdana, Helvetica; font-size: 14px; }
      text.left  { font-family: Verdana, Helvetica; font-size: 14px; text-anchor: start; }
      text.right { font-family: Verdana, Helvetica; font-size: 14px; text-anchor: end; }
      text.min   { font-size: 10px; }
]]>    </style>
  </defs>
  <rect class="background" height="100%" width="100%" x="0" y="0"/>
  <rect class="box" height="90" width="200" x="20" y="20"/>
  <text class="min" x="20" y="15">0min</text>
  <line class="min60" x1="20" x2="20" y1="20" y2="110"/>
  <line class="min01" x1="30" x2="30" y1="20" y2="110"/>
  <line class="min01" x1="40" x2="40" y1="20" y2="110"/>
  <line class="min01" x1="50" x2="50" y1="20" y2="110"/>
  <line class="min01" x1="60" x2="60" y1="20" y2="110"/>
  <text class="min" x="70" y="15">5min</text>
  <line class="min5" x1="70" x2="70" y1="20" y2="110"/>
  <line class="min01" x1="80" x2="80" y1="20" y2="110"/>
  <line class="min01" x1="90" x2="90" y1="20" y2="110"/>
  <line class="min01" x1="100" x2="100" y1="20" y2="110"/>
  <line class="min01" x1="110" x2="110" y1="20" y2="110"/>
  <text class="min" x="120" y="15">10min</text>
  <line class="min5" x1="120" x2="120" y1="20" y2="110"/>
  <line class="min01" x1="130" x2="130" y1="20" y2="110"/>
  <line class="min01" x1="140" x2="140" y1="20" y2="110"/>
  <line class="min01" x1="150" x2="150" y1="20" y2="110"/>
  <line class="min01" x1="160" x2="160" y1="20" y2="110"/>
  <text class="min" x="170" y="15">15min</text>
  <line class="min5" x1="170" x2="170" y1="20" y2="110"/>
  <line class="min01" x1="180" x2="180" y1="20" y2="110"/>
  <line class="min01" x1="190" x2="190" y1="20" y2="110"/>
  <line class="min01" x1="200" x2="200" y1="20" y2="110"/>
  <line class="min01" x1="210" x2="210" y1="20" y2="110"/>
  <rect class="success" height="20" width="177.25849999999997" x="20.0" y="25"/>
  <text class="min" x="25.0" y="39">Gerrit-verifier-change#lastBuild</text>
  <rect class="success" height="20" width="13.063333333333333" x="40.833" y="55"/>
  <text class="min" x="45.833" y="69">Gerrit-codestyle#25726</text>
  <rect class="success" height="20" width="153.5835" x="43.33283333333334" y="85"/>
  <text class="min" x="48.33283333333334" y="99">Gerrit-verifier-bazel#48631</text>
</svg>
